<?xml version="1.0" encoding="UTF-8"?>
<svg xmlns="http://www.w3.org/2000/svg" xmlns:xlink="http://www.w3.org/1999/xlink" width="375pt" height="375pt" viewBox="0 0 375 375" version="1.1">
<g id="surface1">
<path style=" stroke:none;fill-rule:nonzero;fill:rgb(0%,0%,0%);fill-opacity:1;" d="M 159.375 13.25 C 85.625 24.75 27.375 81.625 13 156.25 C 10 172.125 10 202.375 13 218.75 C 22.75 272.75 59 321.125 107.875 345.875 C 119.875 351.875 143.375 359.375 157.375 361.75 C 172.5 364.25 200.75 364.375 216.25 361.875 C 230.125 359.625 253.5 352 265.875 345.875 C 313.875 321.625 349.25 275.5 360 222.75 C 377.625 135.75 327.75 49.25 243.125 20.375 C 218 11.75 186.125 9.125 159.375 13.25 Z M 307.75 111.375 C 309.75 114 310 115.25 309 117.125 C 306.875 120.875 190.375 211.25 187.5 211.25 C 184.75 211.25 67 120 65.75 116.875 C 64.875 114.375 66.75 110.625 69.75 108.875 C 71.125 108 111.375 107.625 188.625 107.875 L 305.375 108.125 Z M 123.625 183.75 C 152.125 205.875 177.25 224.75 179.5 225.75 C 184.5 227.875 189.5 228 194.875 226.125 C 197 225.375 224.25 204.875 255.375 180.625 L 311.875 136.5 L 312.25 202.25 C 312.5 273.875 312.75 272.25 305.375 275.125 C 303.375 275.875 257.625 276.125 182.25 276 L 62.25 275.625 L 56.25 268.625 L 56.25 131 L 64.125 137.25 C 68.375 140.625 95.125 161.5 123.625 183.75 Z M 123.625 183.75 "/>
</g>
</svg>
