<?xml version="1.0" encoding="UTF-8"?>
<svg xmlns="http://www.w3.org/2000/svg" xmlns:xlink="http://www.w3.org/1999/xlink" width="469pt" height="469pt" viewBox="0 0 469 469" version="1.1">
<g id="surface1">
<path style=" stroke:none;fill-rule:nonzero;fill:rgb(0%,0%,0%);fill-opacity:1;" d="M 203.90625 61.25 C 181.25 65.46875 155 76.25 135.15625 89.53125 C 122.03125 98.28125 99.84375 120.3125 90.78125 133.4375 C 76.09375 154.84375 65.46875 180.46875 61.09375 205.3125 C 58.59375 218.75 59.0625 250.46875 61.71875 265.78125 C 72.5 327.34375 118.75 380.9375 178.125 400.78125 C 196.5625 406.875 212.65625 409.375 234.21875 409.375 C 256.25 409.375 266.40625 407.96875 285.9375 402.03125 C 312.34375 394.21875 335.3125 380.3125 356.71875 359.53125 C 383.59375 333.4375 401.09375 300.3125 407.65625 263.4375 C 410.15625 249.84375 409.6875 216.25 407.03125 202.03125 C 393.4375 130.625 336.40625 74.0625 265.78125 61.71875 C 251.40625 59.0625 216.40625 58.90625 203.90625 61.25 Z M 191.5625 129.375 C 194.84375 131.875 200 136.40625 202.8125 139.6875 L 207.96875 145.46875 L 215.3125 142.65625 C 225.46875 138.75 264.53125 138.59375 274.84375 142.5 L 281.71875 145.15625 L 288.4375 137.65625 C 295.3125 130 305.9375 123.90625 309.84375 125.46875 C 313.90625 127.03125 315.78125 148.59375 312.5 157.03125 C 311.25 160.46875 311.5625 162.03125 315.625 166.875 C 322.03125 175 325 187.96875 325 208.125 C 325 221.40625 324.375 226.71875 321.5625 233.90625 C 315.3125 250.9375 297.65625 264.84375 277.1875 269.21875 C 269.53125 270.78125 268.75 271.40625 269.53125 274.21875 C 274.375 288.90625 275 294.53125 275 318.28125 L 275 343.75 L 215.625 343.75 L 215.625 316.09375 L 203.59375 316.09375 C 183.125 316.09375 174.375 310.3125 160.9375 287.5 C 156.25 279.6875 150.46875 271.71875 148.125 270 C 141.5625 265.46875 142.65625 263.59375 151.25 264.375 C 160.46875 265.3125 165.15625 268.59375 172.1875 278.75 C 175 282.96875 179.84375 288.125 182.96875 290.15625 C 189.0625 294.21875 201.40625 296.25 209.84375 294.6875 C 214.84375 293.75 215.3125 293.125 216.25 287.03125 C 216.875 283.4375 218.28125 278.4375 219.53125 275.9375 C 220.9375 273.4375 221.71875 271.25 221.5625 271.09375 C 221.25 270.9375 217.1875 270 212.5 269.0625 C 192.5 264.6875 177.96875 254.0625 170.15625 238.28125 C 166.09375 230 165.15625 225.78125 164.53125 214.53125 C 163.4375 195.625 167.03125 176.5625 173.59375 167.34375 C 178.125 160.9375 178.28125 160 176.71875 154.6875 C 174.53125 147.34375 174.53125 140.78125 176.71875 131.875 C 178.90625 123.4375 182.5 122.8125 191.5625 129.375 Z M 191.5625 129.375 "/>
</g>
</svg>
