<?xml version="1.0" encoding="UTF-8"?>
<svg xmlns="http://www.w3.org/2000/svg" xmlns:xlink="http://www.w3.org/1999/xlink" width="375pt" height="375pt" viewBox="0 0 375 375" version="1.1">
<g id="surface1">
<path style=" stroke:none;fill-rule:nonzero;fill-opacity:1;" d="M 163.125 49 C 145 52.375 124 61 108.125 71.625 C 97.625 78.625 79.875 96.25 72.625 106.75 C 60.875 123.875 52.375 144.375 48.875 164.25 C 46.875 175 47.25 200.375 49.375 212.625 C 58 261.875 95 304.75 142.5 320.625 C 157.25 325.5 170.125 327.5 187.375 327.5 C 205 327.5 213.125 326.375 228.75 321.625 C 249.875 315.375 268.25 304.25 285.375 287.625 C 306.875 266.75 320.875 240.25 326.125 210.75 C 328.125 199.875 327.75 173 325.625 161.625 C 314.75 104.5 269.125 59.25 212.625 49.375 C 201.125 47.25 173.125 47.125 163.125 49 Z M 153.25 103.5 C 155.875 105.5 160 109.125 162.25 111.75 L 166.375 116.375 L 172.25 114.125 C 180.375 111 211.625 110.875 219.875 114 L 225.375 116.125 L 230.75 110.125 C 236.25 104 244.75 99.125 247.875 100.375 C 251.125 101.625 252.625 118.875 250 125.625 C 249 128.375 249.25 129.625 252.5 133.5 C 257.625 140 260 150.375 260 166.5 C 260 177.125 259.5 181.375 257.25 187.125 C 252.25 200.75 238.125 211.875 221.75 215.375 C 215.625 216.625 215 217.125 215.625 219.375 C 219.5 231.125 220 235.625 220 254.625 L 220 275 L 172.5 275 L 172.5 252.875 L 162.875 252.875 C 146.5 252.875 139.5 248.25 128.75 230 C 125 223.75 120.375 217.375 118.5 216 C 113.25 212.375 114.125 210.875 121 211.5 C 128.375 212.25 132.125 214.875 137.75 223 C 140 226.375 143.875 230.5 146.375 232.125 C 151.25 235.375 161.125 237 167.875 235.75 C 171.875 235 172.25 234.5 173 229.625 C 173.5 226.75 174.625 222.75 175.625 220.75 C 176.75 218.75 177.375 217 177.25 216.875 C 177 216.75 173.75 216 170 215.25 C 154 211.75 142.375 203.25 136.125 190.625 C 132.875 184 132.125 180.625 131.625 171.625 C 130.75 156.5 133.625 141.25 138.875 133.875 C 142.5 128.75 142.625 128 141.375 123.75 C 139.625 117.875 139.625 112.625 141.375 105.5 C 143.125 98.75 146 98.25 153.25 103.5 Z M 153.25 103.5 "/>
</g>
</svg>
