<?xml version="1.0" encoding="UTF-8"?>
<svg xmlns="http://www.w3.org/2000/svg" xmlns:xlink="http://www.w3.org/1999/xlink" width="375pt" height="375pt" viewBox="0 0 375 375" version="1.1">
<g id="surface1">
<path style=" stroke:none;fill-rule:nonzero;fill-opacity:1;" d="M 176.25 0.75 C 101.25 6.875 41 50.875 13.375 119.625 C 3.375 144.375 -1.125 175.125 1.25 202 C 4.25 236.125 13.875 263.875 32.375 291.5 C 92.875 382 217.25 401.75 302.875 334.5 C 340.5 305.125 364.25 264.375 372.625 215 C 374.875 201.75 374.5 170.75 372 156.625 C 357.625 76.625 296.75 16 218.125 3.25 C 206 1.25 185.375 0 176.25 0.75 Z M 129.5 82 C 140.5 89.125 144.375 102.625 138.75 114.375 C 127.5 137.625 92.125 129.125 92.125 103.125 C 92.125 88.625 102 78.875 116.875 78.75 C 123 78.75 125.5 79.375 129.5 82 Z M 266.625 145.625 C 279.875 152.125 288.5 164.75 291.125 181.25 C 291.875 185.75 292.5 209 292.5 234 L 292.5 278.75 L 250 278.75 L 250 239 C 250 215.625 249.5 197.5 248.75 194.75 C 244.25 178.625 225 173.625 211.875 185.125 C 204.375 191.75 203.75 196.375 203.75 240.25 L 203.75 278.75 L 163.75 278.75 L 163.75 145 L 203.75 145 L 203.75 160.375 L 210.375 154.125 C 221.75 143.375 228 141.125 246.25 141.625 C 257.75 142 260.25 142.375 266.625 145.625 Z M 137.5 211.875 L 137.5 278.75 L 96.25 278.75 L 96.25 145 L 137.5 145 Z M 137.5 211.875 "/>
</g>
</svg>
